<svg width="93" height="93" viewBox="0 0 93 93" fill="none" xmlns="http://www.w3.org/2000/svg">
<path d="M68.9858 47.0261C68.716 46.7504 68.3941 46.5312 68.0388 46.3813C67.6835 46.2313 67.3018 46.1536 66.9162 46.1526C66.5305 46.1516 66.1485 46.2274 65.7924 46.3755C65.4363 46.5237 65.1133 46.7412 64.8421 47.0155C64.571 47.2897 64.3571 47.6152 64.213 47.9729C64.0689 48.3307 63.9974 48.7135 64.0028 49.0992C64.0081 49.4848 64.0902 49.8655 64.2441 50.2191C64.3981 50.5727 64.6209 50.8921 64.8996 51.1588C67.3653 53.585 69.3216 56.4793 70.6536 59.6719C71.9856 62.8644 72.6665 66.2908 72.6564 69.75C72.6564 73.3044 62.4671 78.4688 46.5001 78.4688C30.5332 78.4688 20.3439 73.3015 20.3439 69.7442C20.334 66.3086 21.0057 62.9051 22.3202 59.7308C23.6347 56.5565 25.5659 53.6746 28.0019 51.2518C28.2794 50.9837 28.5008 50.663 28.6531 50.3084C28.8055 49.9538 28.8856 49.5725 28.889 49.1866C28.8923 48.8007 28.8188 48.418 28.6727 48.0608C28.5266 47.7037 28.3108 47.3792 28.0379 47.1063C27.765 46.8334 27.4405 46.6176 27.0833 46.4715C26.7262 46.3254 26.3435 46.2518 25.9576 46.2552C25.5717 46.2585 25.1903 46.3387 24.8358 46.491C24.4812 46.6433 24.1605 46.8647 23.8924 47.1423C20.9146 50.1044 18.5539 53.6277 16.947 57.5084C15.3402 61.389 14.5191 65.5499 14.5314 69.75C14.5314 79.1895 31.0011 84.2813 46.5001 84.2813C61.9992 84.2813 78.4689 79.1895 78.4689 69.75C78.4818 65.5216 77.6495 61.3332 76.021 57.4309C74.3925 53.5286 72.0006 49.991 68.9858 47.0261Z" fill="#BBFF86"/>
<path d="M46.5 49.4063C50.5236 49.4063 54.4569 48.2131 57.8024 45.9777C61.1479 43.7423 63.7554 40.5651 65.2952 36.8477C66.8349 33.1304 67.2378 29.0399 66.4529 25.0936C65.6679 21.1473 63.7303 17.5224 60.8852 14.6773C58.0401 11.8322 54.4152 9.89463 50.4689 9.10966C46.5226 8.32469 42.4321 8.72756 38.7148 10.2673C34.9974 11.8071 31.8202 14.4146 29.5848 17.7601C27.3494 21.1056 26.1562 25.0389 26.1562 29.0625C26.1624 34.4561 28.3077 39.6271 32.1216 43.4409C35.9355 47.2548 41.1064 49.4001 46.5 49.4063ZM46.5 14.5313C49.374 14.5313 52.1835 15.3835 54.5731 16.9802C56.9628 18.5769 58.8253 20.8464 59.9251 23.5016C61.025 26.1569 61.3127 29.0786 60.752 31.8974C60.1913 34.7162 58.8074 37.3054 56.7751 39.3377C54.7429 41.3699 52.1537 42.7539 49.3349 43.3145C46.5161 43.8752 43.5944 43.5875 40.9391 42.4876C38.2839 41.3878 36.0144 39.5253 34.4177 37.1356C32.821 34.746 31.9688 31.9365 31.9688 29.0625C31.9734 25.21 33.5058 21.5166 36.23 18.7925C38.9541 16.0683 42.6475 14.5359 46.5 14.5313Z" fill="#BBFF86"/>
</svg>
